# xmcd CD database file
#
# Track frame offsets:
#	150
#	18802
#	28747
#	35315
#	54740
#	73727
#	94425
#	109182
#	129255
#	141430
#	155972
#	184300
#	199075
#	228070
#	250550
#	263215
#
# Disc length: 3909 seconds
#
# Revision: 0
# Processed by: cddbd v1.5.2PL0 Copyright (c) Steve Scherf et al.
# Submitted via: CDex 1.51
#
DISCID=e20f4310
DTITLE=Norbert Detaeye - The Romanian Concert
DYEAR=1992
DGENRE=Jazz
TTITLE0=Coquette
TTITLE1=Thjeme from 'Ragtime'
TTITLE2=Where Is My Wandering Boy Tonight
TTITLE3=Sentimental Journey
TTITLE4=Boomer's Story
TTITLE5=I Thought I Heard New-Orleans Say
TTITLE6=We Shall Walk Through The Streets Of The City
TTITLE7=What Am I Living For
TTITLE8=Every Man A King
TTITLE9=Mr. President, Have Pity On The Working Man
TTITLE10=Me And Bobby McGee
TTITLE11=Loneliness
TTITLE12=Marie Laveau
TTITLE13=Cotton Song
TTITLE14=Rock Island Line
TTITLE15=Junko Partner
EXTD=YEAR: 1992
EXTT0=
EXTT1=
EXTT2=
EXTT3=
EXTT4=
EXTT5=
EXTT6=
EXTT7=
EXTT8=
EXTT9=
EXTT10=
EXTT11=
EXTT12=
EXTT13=
EXTT14=
EXTT15=
PLAYORDER=
